<svg xmlns="http://www.w3.org/2000/svg" xmlns:xlink="http://www.w3.org/1999/xlink" width="500" zoomAndPan="magnify" viewBox="0 0 375 374.999991" height="500" preserveAspectRatio="xMidYMid meet" version="1.0"><defs><clipPath id="f894a8552d"><path d="M 51.605469 48.3125 L 323 48.3125 L 323 326.5625 L 51.605469 326.5625 Z M 51.605469 48.3125 " clip-rule="nonzero"/></clipPath><clipPath id="d4dfd09329"><path d="M 69.480469 66.625 L 303.480469 66.625 L 303.480469 305.875 L 69.480469 305.875 Z M 69.480469 66.625 " clip-rule="nonzero"/></clipPath><clipPath id="452d0e356d"><path d="M 125.945312 125.046875 L 165 125.046875 L 165 237 L 125.945312 237 Z M 125.945312 125.046875 " clip-rule="nonzero"/></clipPath><clipPath id="8d49120acf"><path d="M 134 125.046875 L 176.195312 125.046875 L 176.195312 231 L 134 231 Z M 134 125.046875 " clip-rule="nonzero"/></clipPath><clipPath id="2b944d6be6"><path d="M 133 247 L 167 247 L 167 278.796875 L 133 278.796875 Z M 133 247 " clip-rule="nonzero"/></clipPath></defs><path fill="#5e17eb" d="M 375 187.5 C 375 190.570312 374.925781 193.636719 374.773438 196.699219 C 374.625 199.765625 374.398438 202.824219 374.097656 205.878906 C 373.796875 208.933594 373.421875 211.976562 372.96875 215.011719 C 372.519531 218.046875 371.996094 221.070312 371.398438 224.078125 C 370.796875 227.089844 370.125 230.082031 369.378906 233.058594 C 368.636719 236.035156 367.816406 238.992188 366.925781 241.929688 C 366.035156 244.863281 365.074219 247.777344 364.039062 250.667969 C 363.003906 253.554688 361.902344 256.417969 360.726562 259.253906 C 359.554688 262.089844 358.308594 264.890625 356.996094 267.667969 C 355.6875 270.441406 354.304688 273.179688 352.859375 275.886719 C 351.414062 278.59375 349.902344 281.261719 348.324219 283.894531 C 346.746094 286.527344 345.105469 289.117188 343.402344 291.667969 C 341.695312 294.222656 339.929688 296.730469 338.101562 299.195312 C 336.273438 301.660156 334.386719 304.078125 332.4375 306.449219 C 330.492188 308.820312 328.488281 311.144531 326.429688 313.417969 C 324.367188 315.691406 322.253906 317.914062 320.082031 320.082031 C 317.914062 322.253906 315.691406 324.367188 313.417969 326.429688 C 311.144531 328.488281 308.820312 330.492188 306.449219 332.4375 C 304.078125 334.386719 301.660156 336.273438 299.195312 338.101562 C 296.730469 339.929688 294.222656 341.695312 291.667969 343.402344 C 289.117188 345.105469 286.527344 346.746094 283.894531 348.324219 C 281.261719 349.902344 278.59375 351.414062 275.886719 352.859375 C 273.179688 354.308594 270.441406 355.6875 267.667969 356.996094 C 264.890625 358.308594 262.089844 359.554688 259.253906 360.726562 C 256.417969 361.902344 253.554688 363.003906 250.667969 364.039062 C 247.777344 365.074219 244.863281 366.035156 241.929688 366.925781 C 238.992188 367.816406 236.035156 368.636719 233.058594 369.378906 C 230.082031 370.125 227.089844 370.796875 224.078125 371.398438 C 221.070312 371.996094 218.046875 372.519531 215.011719 372.96875 C 211.976562 373.421875 208.933594 373.796875 205.878906 374.097656 C 202.824219 374.398438 199.765625 374.625 196.699219 374.773438 C 193.636719 374.925781 190.570312 375 187.5 375 C 184.429688 375 181.363281 374.925781 178.300781 374.773438 C 175.234375 374.625 172.175781 374.398438 169.121094 374.097656 C 166.066406 373.796875 163.023438 373.421875 159.988281 372.96875 C 156.953125 372.519531 153.929688 371.996094 150.921875 371.398438 C 147.910156 370.796875 144.917969 370.125 141.941406 369.378906 C 138.964844 368.636719 136.007812 367.816406 133.070312 366.925781 C 130.136719 366.035156 127.222656 365.074219 124.332031 364.039062 C 121.445312 363.003906 118.582031 361.902344 115.746094 360.726562 C 112.910156 359.554688 110.105469 358.308594 107.332031 356.996094 C 104.558594 355.6875 101.820312 354.308594 99.113281 352.859375 C 96.40625 351.414062 93.738281 349.902344 91.105469 348.324219 C 88.472656 346.746094 85.882812 345.105469 83.332031 343.402344 C 80.777344 341.695312 78.269531 339.929688 75.804688 338.101562 C 73.339844 336.273438 70.921875 334.386719 68.550781 332.4375 C 66.179688 330.492188 63.855469 328.488281 61.582031 326.429688 C 59.308594 324.367188 57.085938 322.253906 54.917969 320.082031 C 52.746094 317.914062 50.632812 315.691406 48.570312 313.417969 C 46.511719 311.144531 44.507812 308.820312 42.558594 306.449219 C 40.613281 304.078125 38.726562 301.660156 36.898438 299.195312 C 35.070312 296.730469 33.304688 294.222656 31.597656 291.667969 C 29.894531 289.117188 28.253906 286.527344 26.675781 283.894531 C 25.097656 281.261719 23.585938 278.59375 22.140625 275.886719 C 20.691406 273.179688 19.3125 270.441406 18.003906 267.667969 C 16.691406 264.890625 15.445312 262.089844 14.273438 259.253906 C 13.097656 256.417969 11.996094 253.554688 10.960938 250.667969 C 9.925781 247.777344 8.964844 244.863281 8.074219 241.929688 C 7.183594 238.992188 6.363281 236.035156 5.617188 233.058594 C 4.875 230.082031 4.203125 227.089844 3.601562 224.078125 C 3.003906 221.070312 2.480469 218.046875 2.03125 215.011719 C 1.578125 211.976562 1.203125 208.933594 0.902344 205.878906 C 0.601562 202.824219 0.375 199.765625 0.226562 196.699219 C 0.0742188 193.636719 0 190.570312 0 187.5 C 0 184.429688 0.0742188 181.363281 0.226562 178.300781 C 0.375 175.234375 0.601562 172.175781 0.902344 169.121094 C 1.203125 166.066406 1.578125 163.023438 2.03125 159.988281 C 2.480469 156.953125 3.003906 153.929688 3.601562 150.921875 C 4.203125 147.910156 4.875 144.917969 5.617188 141.941406 C 6.363281 138.964844 7.183594 136.007812 8.074219 133.070312 C 8.964844 130.136719 9.925781 127.222656 10.960938 124.332031 C 11.996094 121.445312 13.097656 118.582031 14.273438 115.746094 C 15.445312 112.910156 16.691406 110.105469 18.003906 107.332031 C 19.3125 104.558594 20.691406 101.820312 22.140625 99.113281 C 23.585938 96.40625 25.097656 93.738281 26.675781 91.105469 C 28.253906 88.472656 29.894531 85.882812 31.597656 83.332031 C 33.304688 80.777344 35.070312 78.269531 36.898438 75.804688 C 38.726562 73.339844 40.613281 70.921875 42.558594 68.550781 C 44.507812 66.179688 46.511719 63.855469 48.570312 61.582031 C 50.632812 59.308594 52.746094 57.085938 54.917969 54.917969 C 57.085938 52.746094 59.308594 50.632812 61.582031 48.570312 C 63.855469 46.511719 66.179688 44.507812 68.550781 42.558594 C 70.921875 40.613281 73.339844 38.726562 75.804688 36.898438 C 78.269531 35.070312 80.777344 33.304688 83.332031 31.597656 C 85.882812 29.894531 88.472656 28.253906 91.105469 26.675781 C 93.738281 25.097656 96.40625 23.585938 99.113281 22.140625 C 101.820312 20.691406 104.558594 19.3125 107.332031 18.003906 C 110.105469 16.691406 112.910156 15.445312 115.746094 14.273438 C 118.582031 13.097656 121.445312 11.996094 124.332031 10.960938 C 127.222656 9.925781 130.136719 8.964844 133.070312 8.074219 C 136.007812 7.183594 138.964844 6.363281 141.941406 5.617188 C 144.917969 4.875 147.910156 4.203125 150.921875 3.601562 C 153.929688 3.003906 156.953125 2.480469 159.988281 2.03125 C 163.023438 1.578125 166.066406 1.203125 169.121094 0.902344 C 172.175781 0.601562 175.234375 0.375 178.300781 0.226562 C 181.363281 0.0742188 184.429688 0 187.5 0 C 190.570312 0 193.636719 0.0742188 196.699219 0.226562 C 199.765625 0.375 202.824219 0.601562 205.878906 0.902344 C 208.933594 1.203125 211.976562 1.578125 215.011719 2.03125 C 218.046875 2.480469 221.070312 3.003906 224.078125 3.601562 C 227.089844 4.203125 230.082031 4.875 233.058594 5.617188 C 236.035156 6.363281 238.992188 7.183594 241.929688 8.074219 C 244.863281 8.964844 247.777344 9.925781 250.667969 10.960938 C 253.554688 11.996094 256.417969 13.097656 259.253906 14.273438 C 262.089844 15.445312 264.890625 16.691406 267.667969 18.003906 C 270.441406 19.3125 273.179688 20.691406 275.886719 22.140625 C 278.59375 23.585938 281.261719 25.097656 283.894531 26.675781 C 286.527344 28.253906 289.117188 29.894531 291.667969 31.597656 C 294.222656 33.304688 296.730469 35.070312 299.195312 36.898438 C 301.660156 38.726562 304.078125 40.613281 306.449219 42.558594 C 308.820312 44.507812 311.144531 46.511719 313.417969 48.570312 C 315.691406 50.632812 317.914062 52.746094 320.082031 54.917969 C 322.253906 57.085938 324.367188 59.308594 326.429688 61.582031 C 328.488281 63.855469 330.492188 66.179688 332.4375 68.550781 C 334.386719 70.921875 336.273438 73.339844 338.101562 75.804688 C 339.929688 78.269531 341.695312 80.777344 343.402344 83.332031 C 345.105469 85.882812 346.746094 88.472656 348.324219 91.105469 C 349.902344 93.738281 351.414062 96.40625 352.859375 99.113281 C 354.304688 101.820312 355.6875 104.558594 356.996094 107.332031 C 358.308594 110.105469 359.554688 112.910156 360.726562 115.746094 C 361.902344 118.582031 363.003906 121.445312 364.039062 124.332031 C 365.074219 127.222656 366.035156 130.136719 366.925781 133.070312 C 367.816406 136.007812 368.636719 138.964844 369.378906 141.941406 C 370.125 144.917969 370.796875 147.910156 371.398438 150.921875 C 371.996094 153.929688 372.519531 156.953125 372.96875 159.988281 C 373.421875 163.023438 373.796875 166.066406 374.097656 169.121094 C 374.398438 172.175781 374.625 175.234375 374.773438 178.300781 C 374.925781 181.363281 375 184.429688 375 187.5 Z M 375 187.5 " fill-opacity="1" fill-rule="nonzero"/><g clip-path="url(#f894a8552d)"><path fill="#ffffff" d="M 187.324219 48.3125 L 212.019531 79.253906 L 247.667969 62.113281 L 256.457031 100.679688 L 296.054688 100.679688 L 287.269531 139.300781 L 322.917969 156.496094 L 298.222656 187.4375 L 322.917969 218.378906 L 287.269531 235.574219 L 296.054688 274.195312 L 256.457031 274.195312 L 247.667969 312.761719 L 212.019531 295.621094 L 187.324219 326.5625 L 162.6875 295.621094 L 127.039062 312.761719 L 118.195312 274.195312 L 78.652344 274.195312 L 87.441406 235.574219 L 51.789062 218.378906 L 76.484375 187.4375 L 51.789062 156.496094 L 87.441406 139.300781 L 78.652344 100.679688 L 118.195312 100.679688 L 127.039062 62.113281 L 162.6875 79.253906 Z M 187.324219 48.3125 " fill-opacity="1" fill-rule="nonzero"/></g><g clip-path="url(#d4dfd09329)"><path fill="#38b6ff" d="M 186.457031 66.625 L 207.738281 93.230469 L 238.464844 78.492188 L 246.035156 111.652344 L 280.164062 111.652344 L 272.589844 144.859375 L 303.3125 159.644531 L 282.03125 186.25 L 303.3125 212.855469 L 272.589844 227.640625 L 280.164062 260.847656 L 246.035156 260.847656 L 238.464844 294.007812 L 207.738281 279.269531 L 186.457031 305.875 L 165.222656 279.269531 L 134.5 294.007812 L 126.878906 260.847656 L 92.800781 260.847656 L 100.371094 227.640625 L 69.648438 212.855469 L 90.929688 186.25 L 69.648438 159.644531 L 100.371094 144.859375 L 92.800781 111.652344 L 126.878906 111.652344 L 134.5 78.492188 L 165.222656 93.230469 Z M 186.457031 66.625 " fill-opacity="1" fill-rule="nonzero"/></g><g clip-path="url(#452d0e356d)"><path fill="#000000" d="M 160.046875 236.378906 L 137.5 236.378906 L 125.945312 130.898438 L 134.46875 125.144531 L 151.074219 211.261719 L 164.808594 230.976562 Z M 160.046875 236.378906 " fill-opacity="1" fill-rule="nonzero"/></g><g clip-path="url(#8d49120acf)"><path fill="#ffde59" d="M 164.808594 230.976562 L 142.601562 230.976562 L 134.46875 125.144531 L 176.199219 125.144531 Z M 164.808594 230.976562 " fill-opacity="1" fill-rule="nonzero"/></g><g clip-path="url(#2b944d6be6)"><path fill="#000000" d="M 140.851562 275.863281 C 136.621094 272.917969 133.941406 268.042969 133.941406 263 C 133.722656 252.492188 144.726562 247.292969 153.820312 247.292969 C 162.910156 247.292969 166.289062 256.019531 166.359375 264.09375 C 166.386719 266.972656 166.898438 268.132812 163.578125 272.230469 C 160.257812 276.328125 154.550781 278.703125 151.03125 278.703125 C 147.621094 278.703125 143.386719 277.628906 140.847656 275.863281 " fill-opacity="1" fill-rule="nonzero"/></g><path fill="#ffde59" d="M 167.835938 261.90625 C 167.835938 262.867188 167.742188 263.816406 167.554688 264.757812 C 167.371094 265.699219 167.09375 266.613281 166.726562 267.5 C 166.359375 268.386719 165.910156 269.230469 165.378906 270.027344 C 164.847656 270.824219 164.246094 271.5625 163.566406 272.242188 C 162.890625 272.921875 162.15625 273.527344 161.359375 274.058594 C 160.5625 274.59375 159.722656 275.042969 158.839844 275.410156 C 157.957031 275.777344 157.046875 276.054688 156.105469 276.242188 C 155.167969 276.429688 154.21875 276.523438 153.261719 276.523438 C 152.308594 276.523438 151.359375 276.429688 150.421875 276.242188 C 149.480469 276.054688 148.570312 275.777344 147.6875 275.410156 C 146.800781 275.042969 145.960938 274.59375 145.167969 274.058594 C 144.371094 273.527344 143.636719 272.921875 142.957031 272.242188 C 142.28125 271.5625 141.679688 270.824219 141.148438 270.027344 C 140.613281 269.230469 140.167969 268.386719 139.800781 267.5 C 139.433594 266.613281 139.15625 265.699219 138.96875 264.757812 C 138.785156 263.816406 138.691406 262.867188 138.691406 261.90625 C 138.691406 260.949219 138.785156 259.996094 138.96875 259.054688 C 139.15625 258.113281 139.433594 257.199219 139.800781 256.3125 C 140.167969 255.425781 140.613281 254.585938 141.148438 253.789062 C 141.679688 252.988281 142.28125 252.25 142.957031 251.574219 C 143.636719 250.894531 144.371094 250.289062 145.167969 249.753906 C 145.960938 249.222656 146.800781 248.769531 147.6875 248.402344 C 148.570312 248.035156 149.480469 247.757812 150.421875 247.574219 C 151.359375 247.386719 152.308594 247.292969 153.261719 247.292969 C 154.21875 247.292969 155.167969 247.386719 156.105469 247.574219 C 157.046875 247.757812 157.957031 248.035156 158.839844 248.402344 C 159.722656 248.769531 160.5625 249.222656 161.359375 249.753906 C 162.15625 250.289062 162.890625 250.894531 163.566406 251.574219 C 164.246094 252.25 164.847656 252.988281 165.378906 253.789062 C 165.910156 254.585938 166.359375 255.425781 166.726562 256.3125 C 167.09375 257.199219 167.371094 258.113281 167.554688 259.054688 C 167.742188 259.996094 167.835938 260.949219 167.835938 261.90625 Z M 167.835938 261.90625 " fill-opacity="1" fill-rule="nonzero"/><path fill="#ffde59" d="M 229.699219 242.628906 C 231.457031 245.054688 235.117188 252.082031 229.671875 259.101562 C 223.179688 267.464844 205.378906 266.289062 205.386719 249.328125 L 205.386719 246.082031 C 210.667969 234.113281 224.816406 234.929688 229.699219 242.628906 Z M 261.039062 137.765625 C 241.492188 116.894531 190.542969 115.570312 178.664062 152.578125 C 175.941406 161.050781 176.011719 170.34375 176.011719 170.34375 L 198.953125 170.011719 C 200.558594 155.21875 208.375 145.144531 224.402344 147.484375 C 233.722656 148.847656 241.808594 156.21875 238.140625 165.570312 C 234.621094 174.546875 223.917969 172.082031 213.355469 185.082031 C 204.167969 196.390625 206.992188 220.265625 207.269531 228.050781 L 228.3125 228.617188 C 228.578125 222.378906 229.496094 212.253906 231.742188 204.304688 C 234.539062 194.414062 246.707031 190.46875 254.601562 186.855469 C 272.679688 178.574219 277.863281 155.726562 261.039062 137.765625 Z M 261.039062 137.765625 " fill-opacity="1" fill-rule="nonzero"/><path fill="#141313" d="M 234.21875 245.929688 C 234.933594 248.046875 235.308594 250.363281 235.125 252.707031 C 234.960938 255.054688 234.191406 257.363281 233.03125 259.351562 L 232.578125 260.085938 L 232.09375 260.789062 C 231.929688 261.023438 231.722656 261.261719 231.539062 261.496094 L 231.25 261.847656 C 231.152344 261.960938 231.046875 262.066406 230.941406 262.175781 C 230.128906 263.070312 229.183594 263.808594 228.199219 264.457031 L 227.441406 264.914062 C 227.1875 265.054688 226.921875 265.183594 226.660156 265.316406 C 226.53125 265.382812 226.398438 265.449219 226.265625 265.507812 L 225.863281 265.675781 C 225.59375 265.785156 225.328125 265.902344 225.050781 265.992188 C 223.957031 266.378906 222.824219 266.628906 221.6875 266.765625 C 219.058594 267.039062 216.386719 266.921875 213.832031 266.109375 C 212.558594 265.710938 211.316406 265.167969 210.191406 264.414062 C 209.070312 263.667969 208.046875 262.761719 207.210938 261.714844 C 206.832031 261.210938 206.308594 260.5625 205.804688 259.734375 C 205.667969 259.535156 205.550781 259.3125 205.429688 259.085938 C 205.3125 258.859375 205.1875 258.625 205.0625 258.386719 C 204.9375 258.144531 204.84375 257.886719 204.734375 257.628906 C 204.632812 257.367188 204.507812 257.109375 204.421875 256.832031 C 204.339844 256.558594 204.253906 256.277344 204.167969 255.996094 C 204.125 255.851562 204.082031 255.710938 204.042969 255.566406 C 204.015625 255.421875 203.984375 255.277344 203.953125 255.132812 C 203.898438 254.839844 203.839844 254.542969 203.785156 254.246094 C 203.734375 253.953125 203.714844 253.652344 203.6875 253.351562 C 203.664062 253.054688 203.625 252.753906 203.625 252.457031 C 203.625 252.160156 203.628906 251.863281 203.636719 251.570312 C 203.636719 250.980469 203.726562 250.402344 203.808594 249.84375 C 203.847656 249.601562 203.796875 249.335938 204.40625 249.328125 C 205.0625 249.320312 205.308594 249.574219 205.363281 249.847656 C 205.453125 250.265625 205.523438 250.679688 205.632812 251.085938 C 205.742188 251.496094 205.832031 251.902344 205.902344 252.308594 C 206.175781 253.582031 206.550781 254.820312 207.074219 255.988281 C 207.613281 257.144531 208.304688 258.210938 209.140625 259.136719 C 210.808594 260.996094 213.082031 262.199219 215.476562 262.609375 C 217.996094 263.042969 220.613281 262.792969 222.949219 261.898438 C 224.113281 261.453125 225.207031 260.839844 226.148438 260.082031 L 226.5 259.796875 L 226.824219 259.484375 C 226.929688 259.378906 227.042969 259.285156 227.144531 259.171875 L 227.433594 258.835938 C 227.640625 258.625 227.804688 258.378906 227.976562 258.144531 C 228.148438 257.921875 228.304688 257.640625 228.46875 257.386719 C 229.84375 255.074219 230.394531 252.570312 230.023438 250.105469 C 229.84375 248.875 229.453125 247.648438 228.890625 246.492188 C 228.609375 245.917969 228.28125 245.359375 227.925781 244.835938 C 227.835938 244.707031 227.746094 244.582031 227.65625 244.460938 L 227.324219 244.023438 L 227.03125 243.632812 C 226.933594 243.511719 226.832031 243.414062 226.738281 243.304688 C 225.582031 242.046875 224.035156 241.117188 222.34375 240.574219 C 220.648438 240.027344 218.820312 239.859375 217.046875 240.066406 C 216.289062 240.148438 215.246094 240.277344 214.113281 240.609375 C 212.976562 240.9375 211.75 241.472656 210.65625 242.175781 C 209.554688 242.875 208.597656 243.738281 207.898438 244.476562 C 207.710938 244.65625 207.554688 244.832031 207.410156 244.996094 C 207.261719 245.160156 207.128906 245.304688 207.011719 245.433594 C 206.777344 245.691406 206.617188 245.882812 206.515625 245.957031 C 206.304688 246.117188 206.074219 246.457031 205.363281 246.0625 C 204.722656 245.703125 204.769531 245.253906 204.859375 244.941406 L 204.984375 244.519531 L 205.140625 244.105469 C 205.25 243.832031 205.355469 243.554688 205.480469 243.285156 C 205.742188 242.757812 206.011719 242.222656 206.347656 241.722656 C 208.234375 238.726562 211.378906 236.355469 214.972656 235.410156 C 218.554688 234.429688 222.484375 234.777344 225.917969 236.398438 C 226.894531 236.855469 227.84375 237.410156 228.722656 238.082031 C 229.601562 238.75 230.425781 239.515625 231.140625 240.398438 C 231.308594 240.609375 231.457031 240.816406 231.617188 241.027344 L 231.839844 241.324219 L 231.9375 241.457031 L 232.058594 241.621094 C 232.375 242.070312 232.660156 242.523438 232.925781 242.988281 C 233.453125 243.917969 233.890625 244.902344 234.21875 245.929688 Z M 274.199219 169.144531 C 273.816406 170.90625 273.21875 172.621094 272.527344 174.292969 L 271.96875 175.53125 C 271.78125 175.945312 271.554688 176.335938 271.347656 176.738281 C 270.945312 177.550781 270.4375 178.308594 269.96875 179.082031 C 267.960938 182.101562 265.460938 184.804688 262.5625 186.960938 C 261.132812 188.066406 259.589844 189.003906 258.011719 189.859375 C 257.21875 190.253906 256.382812 190.683594 255.652344 191.003906 C 254.90625 191.339844 254.164062 191.664062 253.4375 191.980469 C 250.523438 193.238281 247.738281 194.425781 245.171875 195.785156 C 244.082031 196.359375 242.820312 197.046875 241.535156 197.882812 C 240.890625 198.296875 240.242188 198.75 239.617188 199.246094 C 238.988281 199.742188 238.371094 200.273438 237.8125 200.855469 C 236.683594 202.019531 235.730469 203.351562 235.113281 204.886719 L 234.992188 205.175781 C 234.953125 205.273438 234.910156 205.410156 234.867188 205.523438 L 234.621094 206.242188 C 234.449219 206.714844 234.304688 207.210938 234.148438 207.691406 C 233.84375 208.667969 233.554688 209.648438 233.289062 210.625 C 232.222656 214.535156 231.429688 218.332031 230.859375 221.289062 C 230.285156 224.25 229.925781 226.375 229.730469 227.015625 C 229.523438 227.699219 229.386719 228.851562 228.273438 228.585938 C 228.09375 228.542969 227.945312 228.472656 227.816406 228.382812 C 227.621094 228.476562 227.390625 228.523438 227.148438 228.539062 C 225.261719 228.648438 223.371094 228.78125 221.484375 228.785156 L 214.359375 228.777344 L 210.796875 228.769531 L 208.746094 228.757812 L 207.664062 228.75 L 207.121094 228.746094 L 206.847656 228.746094 L 206.710938 228.742188 L 206.644531 228.742188 C 206.625 228.738281 206.589844 228.75 206.585938 228.730469 C 206.523438 227.675781 206.445312 226.597656 206.363281 225.507812 L 206.132812 222.746094 C 205.984375 220.964844 205.847656 219.179688 205.742188 217.390625 C 205.535156 213.808594 205.425781 210.207031 205.53125 206.589844 C 205.625 203.410156 205.910156 200.214844 206.515625 197.039062 C 206.828125 195.453125 207.195312 193.867188 207.699219 192.300781 C 208.199219 190.738281 208.804688 189.191406 209.558594 187.691406 L 210.160156 186.578125 C 210.363281 186.210938 210.601562 185.855469 210.824219 185.496094 C 211.039062 185.128906 211.304688 184.789062 211.554688 184.441406 L 211.933594 183.921875 L 212.320312 183.445312 C 213.335938 182.164062 214.441406 180.941406 215.625 179.785156 C 217.976562 177.46875 220.675781 175.460938 223.503906 173.792969 C 225.050781 172.867188 226.632812 172.054688 228.148438 171.265625 C 228.902344 170.875 229.644531 170.484375 230.34375 170.089844 C 231.039062 169.691406 231.695312 169.285156 232.292969 168.855469 C 233.484375 167.996094 234.378906 167.058594 235.007812 165.925781 C 235.097656 165.792969 235.160156 165.636719 235.234375 165.488281 C 235.304688 165.34375 235.382812 165.199219 235.4375 165.039062 L 235.628906 164.570312 L 235.789062 164.074219 C 235.992188 163.414062 236.148438 162.75 236.203125 162.09375 C 236.261719 161.441406 236.273438 160.792969 236.183594 160.164062 C 236.09375 159.535156 235.9375 158.917969 235.710938 158.320312 C 235.253906 157.125 234.492188 156.015625 233.53125 155.035156 C 231.59375 153.070312 228.859375 151.683594 226 151.003906 C 225.46875 150.882812 224.933594 150.773438 224.394531 150.695312 L 223.988281 150.636719 C 223.851562 150.621094 223.703125 150.609375 223.558594 150.59375 L 222.699219 150.503906 C 221.554688 150.425781 220.414062 150.367188 219.304688 150.4375 C 217.074219 150.527344 214.957031 150.984375 213.050781 151.789062 C 211.15625 152.621094 209.480469 153.824219 208.066406 155.367188 C 206.671875 156.921875 205.507812 158.78125 204.625 160.84375 C 204.152344 161.921875 203.613281 163.289062 203.125 164.898438 C 202.996094 165.296875 202.882812 165.714844 202.765625 166.140625 C 202.640625 166.566406 202.542969 167.011719 202.429688 167.464844 L 202.390625 167.632812 L 202.355469 167.761719 C 202.355469 167.753906 202.339844 167.851562 202.335938 167.882812 C 202.296875 168.121094 202.257812 168.359375 202.21875 168.597656 C 202.136719 169.070312 202.058594 169.546875 201.980469 170.023438 C 201.832031 170.964844 201.683594 171.914062 201.53125 172.875 C 200.4375 172.855469 199.332031 172.835938 198.21875 172.816406 C 197.679688 172.804688 197.136719 172.792969 196.589844 172.78125 L 196.1875 172.773438 L 196.023438 172.769531 L 195.910156 172.761719 L 195.464844 172.738281 C 194.269531 172.675781 193.074219 172.609375 191.898438 172.542969 C 189.546875 172.40625 187.273438 172.261719 185.242188 172.121094 C 181.1875 171.835938 178.121094 171.566406 177.382812 171.402344 C 176.816406 171.277344 175.867188 171.222656 176.03125 170.308594 C 176.074219 170.082031 176.171875 169.90625 176.308594 169.765625 C 176.175781 169.519531 176.109375 169.21875 176.09375 168.90625 C 175.976562 166.578125 175.953125 164.21875 176.195312 161.882812 C 176.59375 158.210938 177.273438 154.539062 178.445312 150.988281 C 179.039062 149.214844 179.722656 147.472656 180.53125 145.777344 C 181.347656 144.089844 182.269531 142.449219 183.304688 140.875 C 185.367188 137.71875 187.921875 134.875 190.792969 132.398438 C 193.667969 129.917969 196.898438 127.859375 200.3125 126.179688 C 203.921875 124.410156 207.765625 123.121094 211.699219 122.285156 C 215.632812 121.445312 219.652344 121.035156 223.671875 121.003906 C 227.695312 120.972656 231.71875 121.328125 235.691406 122.042969 C 239.664062 122.757812 243.585938 123.832031 247.394531 125.292969 C 251.578125 126.910156 255.625 129.042969 259.273438 131.859375 C 259.726562 132.214844 260.1875 132.5625 260.625 132.941406 L 261.285156 133.503906 L 261.929688 134.089844 C 262.367188 134.472656 262.773438 134.890625 263.191406 135.296875 C 263.609375 135.707031 263.976562 136.132812 264.371094 136.546875 C 265.167969 137.371094 265.875 138.277344 266.617188 139.152344 C 267.304688 140.078125 268.023438 140.980469 268.644531 141.960938 C 269.308594 142.910156 269.882812 143.925781 270.46875 144.929688 L 271.277344 146.484375 C 271.550781 147.003906 271.769531 147.550781 272.019531 148.082031 C 272.957031 150.234375 273.710938 152.484375 274.230469 154.8125 C 275.25 159.460938 275.292969 164.402344 274.199219 169.144531 Z M 266.277344 152.914062 C 264.757812 148.386719 262.0625 144.214844 258.65625 140.671875 C 255.367188 137.183594 251.21875 134.492188 246.742188 132.441406 C 244.492188 131.433594 242.167969 130.558594 239.78125 129.863281 C 238.59375 129.503906 237.386719 129.207031 236.175781 128.917969 C 234.960938 128.652344 233.742188 128.390625 232.511719 128.195312 C 227.597656 127.367188 222.582031 127.113281 217.605469 127.402344 C 211.851562 127.746094 206.179688 129.203125 201.082031 131.691406 C 195.976562 134.171875 191.480469 137.695312 187.867188 142.023438 C 187.015625 143.046875 185.960938 144.480469 184.917969 146.289062 C 183.871094 148.097656 182.835938 150.273438 181.941406 152.703125 C 181.476562 153.914062 181.097656 155.183594 180.710938 156.507812 C 180.351562 157.835938 180.003906 159.203125 179.710938 160.605469 C 179.113281 163.402344 178.628906 166.296875 178.25 169.074219 C 178.242188 169.109375 178.238281 169.148438 178.234375 169.1875 C 180.546875 168.953125 182.863281 168.78125 185.183594 168.648438 C 187.476562 168.515625 189.769531 168.394531 192.066406 168.28125 L 195.507812 168.125 L 195.9375 168.105469 C 196.027344 168.101562 196.027344 168.097656 196.066406 168.097656 L 196.15625 168.089844 L 196.511719 168.058594 C 196.742188 168.035156 196.980469 168.03125 197.179688 167.992188 C 197.199219 167.726562 197.207031 167.472656 197.234375 167.226562 L 197.269531 166.851562 L 197.425781 165.882812 C 197.65625 164.589844 197.921875 163.300781 198.289062 162.019531 C 199 159.460938 200.03125 156.9375 201.472656 154.585938 C 202.9375 152.25 204.824219 150.074219 207.171875 148.4375 C 208.332031 147.613281 209.589844 146.917969 210.894531 146.355469 C 212.203125 145.792969 213.570312 145.398438 214.9375 145.105469 C 217.222656 144.636719 219.535156 144.476562 221.792969 144.578125 C 222.351562 144.613281 222.921875 144.628906 223.480469 144.6875 L 224.316406 144.773438 C 224.59375 144.800781 224.875 144.832031 225.167969 144.878906 C 226.324219 145.042969 227.46875 145.285156 228.59375 145.617188 C 230.84375 146.285156 233.019531 147.28125 235.003906 148.667969 C 236.980469 150.050781 238.777344 151.851562 240.042969 154.097656 C 240.707031 155.253906 241.226562 156.523438 241.546875 157.855469 C 241.871094 159.183594 241.992188 160.5625 241.914062 161.917969 C 241.84375 163.269531 241.574219 164.589844 241.175781 165.832031 C 240.789062 167.058594 240.226562 168.328125 239.460938 169.484375 C 238.703125 170.648438 237.742188 171.6875 236.722656 172.542969 C 235.707031 173.402344 234.640625 174.089844 233.605469 174.691406 C 231.53125 175.886719 229.570312 176.78125 227.753906 177.753906 C 225.929688 178.71875 224.234375 179.730469 222.652344 180.890625 C 221.066406 182.035156 219.601562 183.324219 218.230469 184.734375 C 217.882812 185.078125 217.550781 185.445312 217.21875 185.808594 C 216.882812 186.167969 216.570312 186.554688 216.246094 186.929688 L 216.003906 187.210938 L 215.394531 188.007812 C 215.128906 188.367188 214.882812 188.753906 214.628906 189.128906 C 213.660156 190.691406 212.859375 192.4375 212.1875 194.285156 C 211.402344 196.421875 210.859375 198.710938 210.484375 201.046875 C 210.105469 203.386719 209.875 205.777344 209.746094 208.1875 C 209.492188 213.015625 209.617188 217.894531 209.714844 222.84375 C 209.722656 223.15625 209.730469 223.5 209.742188 223.871094 C 209.746094 224.054688 209.753906 224.246094 209.761719 224.445312 C 209.765625 224.542969 209.769531 224.644531 209.773438 224.746094 C 209.773438 224.78125 209.773438 224.78125 209.773438 224.785156 L 209.773438 224.835938 C 209.769531 225.03125 209.769531 225.25 209.765625 225.488281 C 209.90625 225.507812 210.074219 225.515625 210.242188 225.53125 L 210.375 225.542969 L 210.480469 225.554688 L 210.597656 225.558594 C 210.984375 225.574219 211.375 225.59375 211.773438 225.609375 C 213.367188 225.679688 215.050781 225.765625 216.777344 225.867188 C 220.175781 226.074219 223.742188 226.359375 227.105469 226.78125 C 227.09375 226.628906 227.085938 226.476562 227.082031 226.332031 C 226.988281 223.246094 227.089844 220.144531 227.339844 217.050781 C 227.527344 214.769531 227.78125 212.488281 228.125 210.207031 L 228.402344 208.492188 L 228.71875 206.78125 C 228.839844 206.210938 228.953125 205.640625 229.082031 205.070312 L 229.285156 204.214844 C 229.355469 203.925781 229.410156 203.65625 229.511719 203.328125 C 229.859375 202.066406 230.351562 200.832031 230.984375 199.683594 C 231.609375 198.535156 232.359375 197.464844 233.183594 196.484375 C 234.839844 194.523438 236.777344 192.910156 238.789062 191.550781 C 242.820312 188.820312 247.144531 186.960938 251.222656 185.121094 C 253.3125 184.191406 255.074219 183.328125 256.777344 182.195312 C 258.46875 181.078125 260.019531 179.777344 261.386719 178.3125 C 264.503906 174.96875 266.59375 170.761719 267.347656 166.320312 C 268.136719 161.882812 267.699219 157.269531 266.277344 152.914062 Z M 266.277344 152.914062 " fill-opacity="1" fill-rule="nonzero"/></svg>